<svg xmlns="http://www.w3.org/2000/svg" width="926" height="645" viewBox="0 0 371 258" font-family="Arial, sans-serif">
  <defs>
    <marker id="ah" viewBox="0 0 8 6" refX="8" refY="3"
      markerWidth="4" markerHeight="3" orient="auto">
      <path d="M0.5,0.5 L7,3 L0.5,5.5" fill="none" stroke="#94A3B8"
        stroke-width="1.2" stroke-linejoin="round" stroke-linecap="round"/>
    </marker>
    <filter id="shadow" x="-6%" y="-8%" width="112%" height="128%">
      <feDropShadow dx="0" dy="0.5" stdDeviation="0.8"
        flood-color="#000" flood-opacity="0.05"/>
    </filter>
  </defs>
  <rect width="371" height="258" fill="#F8F9FB" rx="3"/>
  <text x="185" y="11" text-anchor="middle" font-size="6" font-weight="700" fill="#1E293B">Mezo Rebalancer Vault Architecture</text>
  <rect x="110" y="16" width="150" height="10" rx="3" fill="#fff" stroke="#E2E5EA" stroke-width="0.4"/>
  <rect x="115" y="18.5" width="5" height="5" rx="2.5" fill="#fff" stroke="#E2E5EA" stroke-width="0.4"/>
  <text x="123" y="22.5" font-size="3.5" fill="#1E293B">Actor</text>
  <rect x="155" y="18.5" width="5" height="5" rx="1.5" fill="#fff" stroke="#E2E5EA" stroke-width="0.4"/>
  <rect x="156" y="19.5" width="0.8" height="3" rx="0.4" fill="#3B82F6"/>
  <text x="163" y="22.5" font-size="3.5" fill="#1E293B">Protocol</text>
  <rect x="203" y="18.5" width="5" height="5" rx="1.5" fill="#fff" stroke="#E2E5EA" stroke-width="0.4"/>
  <rect x="204" y="19.5" width="0.8" height="3" rx="0.4" fill="#F59E0B"/>
  <text x="211" y="22.5" font-size="3.5" fill="#1E293B">External</text>
  <rect x="53.9" y="84.0" width="296.8" height="40.0" rx="5" fill="#EDEEF2"/>
  <text x="347.7" y="89.0" text-anchor="end" font-size="3.5" fill="#94A3B8" font-weight="500">Vault Layer</text>
  <rect x="53.9" y="146.0" width="296.8" height="40.0" rx="5" fill="#EDEEF2"/>
  <text x="347.7" y="151.0" text-anchor="end" font-size="3.5" fill="#94A3B8" font-weight="500">Adapters &amp; Strategy</text>
  <path d="M61.6,46.0 C61.6,70.0 109.9,70.0 109.9,94.0" fill="none" stroke="#94A3B8" stroke-width="0.5" marker-end="url(#ah)"/>
  <path d="M223.6,46.0 C223.6,70.0 109.9,70.0 109.9,94.0" fill="none" stroke="#94A3B8" stroke-width="0.5" marker-end="url(#ah)"/>
  <path d="M144.4,46.0 C144.4,70.0 109.9,70.0 109.9,94.0" fill="none" stroke="#94A3B8" stroke-width="0.5" marker-end="url(#ah)"/>
  <path d="M223.6,46.0 C223.6,70.0 216.7,70.0 216.7,94.0" fill="none" stroke="#94A3B8" stroke-width="0.5" marker-end="url(#ah)"/>
  <path d="M302.8,46.0 C302.8,70.0 216.7,70.0 216.7,94.0" fill="none" stroke="#94A3B8" stroke-width="0.5" marker-end="url(#ah)"/>
  <path d="M177.9,112.0 C171.3,134.0 162.5,134.0 155.9,114.0" fill="none" stroke="#94A3B8" stroke-width="0.5" marker-end="url(#ah)"/>
  <path d="M277.5,112.0 C241.0,126.0 192.4,126.0 155.9,114.0" fill="none" stroke="#94A3B8" stroke-width="0.5" marker-end="url(#ah)"/>
  <path d="M109.9,114.0 C109.9,135.0 123.8,135.0 123.8,156.0" fill="none" stroke="#94A3B8" stroke-width="0.5" marker-end="url(#ah)"/>
  <path d="M109.9,114.0 C109.9,135.0 234.2,135.0 234.2,156.0" fill="none" stroke="#94A3B8" stroke-width="0.5" marker-end="url(#ah)"/>
  <path d="M123.8,176.0 C123.8,197.0 72.1,197.0 72.1,218.0" fill="none" stroke="#94A3B8" stroke-width="0.5" marker-end="url(#ah)"/>
  <path d="M123.8,176.0 C123.8,197.0 171.7,197.0 171.7,218.0" fill="none" stroke="#94A3B8" stroke-width="0.5" marker-end="url(#ah)"/>
  <path d="M123.8,176.0 C123.8,197.0 273.7,197.0 273.7,218.0" fill="none" stroke="#94A3B8" stroke-width="0.5" marker-end="url(#ah)"/>
  <g filter="url(#shadow)">
    <rect x="30.0" y="32.0" width="63.2" height="14" rx="7" fill="#fff" stroke="#E2E5EA" stroke-width="0.5"/>
    <text x="61.6" y="40.8" text-anchor="middle" font-size="4.8" font-weight="600" fill="#1E293B">Depositor</text>
  </g>
  <g filter="url(#shadow)">
    <rect x="195.6" y="32.0" width="56.0" height="14" rx="7" fill="#fff" stroke="#E2E5EA" stroke-width="0.5"/>
    <text x="223.6" y="40.8" text-anchor="middle" font-size="4.8" font-weight="600" fill="#1E293B">Owner</text>
  </g>
  <g filter="url(#shadow)">
    <rect x="115.2" y="32.0" width="58.4" height="14" rx="7" fill="#fff" stroke="#E2E5EA" stroke-width="0.5"/>
    <text x="144.4" y="40.8" text-anchor="middle" font-size="4.8" font-weight="600" fill="#1E293B">Operator</text>
  </g>
  <g filter="url(#shadow)">
    <rect x="273.6" y="32.0" width="58.4" height="14" rx="7" fill="#fff" stroke="#E2E5EA" stroke-width="0.5"/>
    <text x="302.8" y="40.8" text-anchor="middle" font-size="4.8" font-weight="600" fill="#1E293B">Guardian</text>
  </g>
  <g filter="url(#shadow)">
    <rect x="177.9" y="94.0" width="77.6" height="20" rx="3" fill="#fff" stroke="#E2E5EA" stroke-width="0.5"/>
    <rect x="180.9" y="97.0" width="1.4" height="14" rx="0.6" fill="#3B82F6"/>
    <text x="216.7" y="103.5" text-anchor="middle" font-size="4.8" font-weight="600" fill="#1E293B">VaultFactory</text>
    <text x="216.7" y="108.5" text-anchor="middle" font-size="3.5" fill="#64748B">Beacon</text>
  </g>
  <g filter="url(#shadow)">
    <rect x="63.9" y="94.0" width="92.0" height="20" rx="3" fill="#fff" stroke="#E2E5EA" stroke-width="0.5"/>
    <rect x="66.9" y="97.0" width="1.4" height="14" rx="0.6" fill="#3B82F6"/>
    <text x="109.9" y="103.5" text-anchor="middle" font-size="4.8" font-weight="600" fill="#1E293B">RebalancerVault</text>
    <text x="109.9" y="108.5" text-anchor="middle" font-size="3.5" fill="#64748B">ERC4626</text>
  </g>
  <g filter="url(#shadow)">
    <rect x="277.5" y="94.0" width="63.2" height="20" rx="3" fill="#fff" stroke="#E2E5EA" stroke-width="0.5"/>
    <rect x="280.5" y="97.0" width="1.4" height="14" rx="0.6" fill="#3B82F6"/>
    <text x="309.1" y="103.5" text-anchor="middle" font-size="4.8" font-weight="600" fill="#1E293B">VaultLens</text>
    <text x="309.1" y="108.5" text-anchor="middle" font-size="3.5" fill="#64748B">Read-only</text>
  </g>
  <g filter="url(#shadow)">
    <rect x="83.2" y="156.0" width="81.2" height="20" rx="3" fill="#fff" stroke="#E2E5EA" stroke-width="0.5"/>
    <rect x="86.2" y="159.0" width="1.4" height="14" rx="0.6" fill="#3B82F6"/>
    <text x="123.8" y="165.5" text-anchor="middle" font-size="4.8" font-weight="600" fill="#1E293B">CLDexAdapter</text>
    <text x="123.8" y="170.5" text-anchor="middle" font-size="3.5" fill="#64748B">Delegatecall seam</text>
  </g>
  <g filter="url(#shadow)">
    <rect x="186.4" y="156.0" width="95.6" height="20" rx="3" fill="#fff" stroke="#E2E5EA" stroke-width="0.5"/>
    <rect x="189.4" y="159.0" width="1.4" height="14" rx="0.6" fill="#3B82F6"/>
    <text x="234.2" y="165.5" text-anchor="middle" font-size="4.8" font-weight="600" fill="#1E293B">Strategy</text>
    <text x="234.2" y="170.5" text-anchor="middle" font-size="3.5" fill="#64748B">OracleLib / VaultMath</text>
  </g>
  <g filter="url(#shadow)">
    <rect x="40.5" y="218.0" width="63.2" height="20" rx="3" fill="#fff" stroke="#E2E5EA" stroke-width="0.5"/>
    <rect x="43.5" y="221.0" width="1.4" height="14" rx="0.6" fill="#F59E0B"/>
    <text x="72.1" y="227.5" text-anchor="middle" font-size="4.8" font-weight="600" fill="#1E293B">CLPool</text>
    <text x="72.1" y="232.5" text-anchor="middle" font-size="3.5" fill="#64748B">Price / TWAP</text>
  </g>
  <g filter="url(#shadow)">
    <rect x="125.7" y="218.0" width="92.0" height="20" rx="3" fill="#fff" stroke="#E2E5EA" stroke-width="0.5"/>
    <rect x="128.7" y="221.0" width="1.4" height="14" rx="0.6" fill="#F59E0B"/>
    <text x="171.7" y="227.5" text-anchor="middle" font-size="4.8" font-weight="600" fill="#1E293B">PositionManager</text>
    <text x="171.7" y="232.5" text-anchor="middle" font-size="3.5" fill="#64748B">CL NFT</text>
  </g>
  <g filter="url(#shadow)">
    <rect x="239.7" y="218.0" width="68.0" height="20" rx="3" fill="#fff" stroke="#E2E5EA" stroke-width="0.5"/>
    <rect x="242.7" y="221.0" width="1.4" height="14" rx="0.6" fill="#F59E0B"/>
    <text x="273.7" y="227.5" text-anchor="middle" font-size="4.8" font-weight="600" fill="#1E293B">SwapRouter</text>
    <text x="273.7" y="232.5" text-anchor="middle" font-size="3.5" fill="#64748B">Swaps</text>
  </g>
  <rect x="64.6" y="65.0" width="42.4" height="6.0" rx="1" fill="#F8F9FB"/>
  <text x="85.8" y="70.0" font-size="4" fill="#1E293B" font-weight="500" text-anchor="middle">deposit / redeem</text>
  <rect x="150.4" y="65.0" width="32.8" height="6.0" rx="1" fill="#F8F9FB"/>
  <text x="166.8" y="70.0" font-size="4" fill="#1E293B" font-weight="500" text-anchor="middle">admin config</text>
  <rect x="114.4" y="65.0" width="25.6" height="6.0" rx="1" fill="#F8F9FB"/>
  <text x="127.2" y="70.0" font-size="4" fill="#1E293B" font-weight="500" text-anchor="middle">rebalance</text>
  <rect x="205.0" y="65.0" width="30.4" height="6.0" rx="1" fill="#F8F9FB"/>
  <text x="220.2" y="70.0" font-size="4" fill="#1E293B" font-weight="500" text-anchor="middle">deployVault</text>
  <rect x="248.2" y="65.0" width="23.2" height="6.0" rx="1" fill="#F8F9FB"/>
  <text x="259.8" y="70.0" font-size="4" fill="#1E293B" font-weight="500" text-anchor="middle">pauseAll</text>
  <rect x="148.1" y="133.0" width="37.6" height="6.0" rx="1" fill="#F8F9FB"/>
  <text x="166.9" y="138.0" font-size="4" fill="#1E293B" font-weight="500" text-anchor="middle">deploy &amp; pause</text>
  <rect x="208.7" y="125.0" width="16.0" height="6.0" rx="1" fill="#F8F9FB"/>
  <text x="216.7" y="130.0" font-size="4" fill="#1E293B" font-weight="500" text-anchor="middle">reads</text>
  <rect x="100.4" y="130.0" width="32.8" height="6.0" rx="1" fill="#F8F9FB"/>
  <text x="116.8" y="135.0" font-size="4" fill="#1E293B" font-weight="500" text-anchor="middle">delegatecall</text>
  <rect x="155.6" y="126.0" width="32.8" height="6.0" rx="1" fill="#F8F9FB"/>
  <text x="172.0" y="131.0" font-size="4" fill="#1E293B" font-weight="500" text-anchor="middle">computeRange</text>
  <rect x="77.9" y="192.0" width="40.0" height="6.0" rx="1" fill="#F8F9FB"/>
  <text x="97.9" y="197.0" font-size="4" fill="#1E293B" font-weight="500" text-anchor="middle">slot0 / observe</text>
  <rect x="120.5" y="192.0" width="54.4" height="6.0" rx="1" fill="#F8F9FB"/>
  <text x="147.7" y="197.0" font-size="4" fill="#1E293B" font-weight="500" text-anchor="middle">mint / collect / burn</text>
  <rect x="177.5" y="192.0" width="42.4" height="6.0" rx="1" fill="#F8F9FB"/>
  <text x="198.7" y="197.0" font-size="4" fill="#1E293B" font-weight="500" text-anchor="middle">exactInputSingle</text>
</svg>